<svg width="33" height="23" viewBox="0 0 33 23" fill="none" xmlns="http://www.w3.org/2000/svg">
<path d="M7.03896 0.464125C6.89876 0.327537 6.72858 0.216357 6.5383 0.137028C6.34801 0.0576999 6.1414 0.0118012 5.93043 0.00199247C5.71947 -0.00781628 5.50835 0.01866 5.30931 0.0798867C5.11028 0.141113 4.92728 0.235873 4.77093 0.358673C4.61458 0.481473 4.48799 0.629871 4.39849 0.795266C4.30899 0.960662 4.25836 1.13976 4.24954 1.32219C4.24072 1.50462 4.27388 1.68675 4.34711 1.85802C4.42033 2.0293 4.53216 2.1863 4.67612 2.31995L6.80481 4.34939C2.22147 6.9871 0.232475 10.7723 0.136684 10.9506C0.0465511 11.1272 0 11.3181 0 11.5111C0 11.7041 0.0465511 11.895 0.136684 12.0716C0.18591 12.1659 1.35137 14.4012 3.92708 16.6261C7.37024 19.5984 11.7114 21.1691 16.501 21.1691C18.8288 21.1802 21.1357 20.7893 23.2862 20.0192L25.959 22.5604C26.2453 22.8261 26.6412 22.9836 27.0609 22.9988C27.4807 23.014 27.8904 22.8855 28.2013 22.6413C28.5122 22.3971 28.6992 22.0569 28.7218 21.6943C28.7444 21.3318 28.6007 20.9761 28.3219 20.7045L7.03896 0.464125ZM16.501 18.4095C12.5642 18.4095 9.12109 17.1757 6.26864 14.7438C5.14663 13.7837 4.18117 12.6959 3.3989 11.5105C4.10004 10.44 5.89878 8.07253 8.98672 6.41793L20.9726 17.8139C19.5271 18.2128 18.0183 18.4137 16.501 18.4095ZM32.8653 12.0716C32.8174 12.1648 31.6679 14.3713 29.1401 16.5744C28.9953 16.7132 28.8195 16.8252 28.6231 16.9036C28.4268 16.9819 28.214 17.025 27.9979 17.0301C27.7817 17.0352 27.5666 17.0024 27.3655 16.9335C27.1645 16.8646 26.9817 16.7611 26.8284 16.6294C26.675 16.4976 26.5542 16.3403 26.4733 16.1669C26.3924 15.9936 26.3531 15.8079 26.3578 15.621C26.3625 15.4341 26.411 15.25 26.5005 15.0799C26.59 14.9097 26.7185 14.7571 26.8784 14.6311C27.9402 13.6981 28.8562 12.649 29.6031 11.5105C28.8213 10.3249 27.8558 9.23705 26.7333 8.2772C23.8796 5.84532 20.4377 4.61155 16.501 4.61155C16.0553 4.61155 15.6096 4.62765 15.1706 4.65985C14.959 4.67943 14.745 4.66227 14.5412 4.60937C14.3374 4.55647 14.1479 4.46889 13.9839 4.35179C13.8198 4.23469 13.6845 4.09042 13.5858 3.92747C13.4872 3.76452 13.4273 3.58618 13.4095 3.40292C13.3918 3.21966 13.4166 3.03518 13.4826 2.86034C13.5485 2.68549 13.6542 2.5238 13.7935 2.38477C13.9328 2.24573 14.1028 2.13217 14.2936 2.05074C14.4844 1.96931 14.6921 1.92167 14.9045 1.91061C15.4273 1.87151 15.9688 1.85197 16.501 1.85197C21.2905 1.85197 25.6317 3.42378 29.0722 6.39608C31.6466 8.621 32.8121 10.8574 32.8613 10.9506C32.9521 11.1269 32.9993 11.3177 33 11.5107C33.0007 11.7038 32.9548 11.8948 32.8653 12.0716Z" fill="#F1C6B9"/>
</svg>